<?xml version="1.0" standalone="no"?><!DOCTYPE svg PUBLIC "-//W3C//DTD SVG 1.1//EN" "http://www.w3.org/Graphics/SVG/1.1/DTD/svg11.dtd"><svg class="icon" width="200px" height="200.00px" viewBox="0 0 1024 1024" version="1.1" xmlns="http://www.w3.org/2000/svg"><path d="M511.487835 959.103968c-246.668982 0-447.355701-200.685695-447.355701-447.355701 0-246.668982 200.686718-447.354678 447.355701-447.354678 246.668982 0 447.354678 200.685695 447.354678 447.354678C958.842513 758.418272 758.156818 959.103968 511.487835 959.103968zM511.487835 81.937151c-237.006925 0-429.812139 192.814424-429.812139 429.811116 0 236.998739 192.805214 429.812139 429.812139 429.812139 237.005902 0 429.811116-192.814424 429.811116-429.812139C941.298951 274.750551 748.493737 81.937151 511.487835 81.937151z"  /><path d="M662.40401 754.4898c12.438287-12.669554 19.444864-29.586852 19.444864-47.388287L681.848874 316.38581c0-18.022469-7.178493-35.154661-19.907399-47.87538-12.71151-12.728906-29.843702-19.916609-47.866171-19.916609L408.934135 248.593821c-18.023492 0-35.087123 7.186679-47.798633 19.856233l-0.137123 0.137123c-12.71151 12.728906-19.872606 29.776164-19.872606 47.798633l0 390.715703c0 18.022469 7.194866 35.138288 19.924795 47.88459 12.728906 12.720719 29.844725 19.907399 47.88459 19.907399l205.14117 0c18.006096 0 35.0861-7.212262 47.798633-19.924795l0.479931-0.479931L662.40401 754.488777 662.40401 754.4898 662.40401 754.4898zM511.487835 696.720072c18.262946 0 33.081443 14.818497 33.081443 33.082466 0 18.24555-14.818497 33.06507-33.081443 33.06507-18.24555 0-33.066093-14.818497-33.066093-33.06507C478.421742 711.538569 493.242286 696.720072 511.487835 696.720072L511.487835 696.720072 511.487835 696.720072zM367.730711 684.709527 367.730711 316.38581c0-10.94733 4.317329-21.363564 12.044314-29.090549l0.068562-0.052189c7.725962-7.735172 18.125823-12.051477 29.090549-12.051477l205.14117 0c10.946306 0 21.329794 4.376681 29.055756 12.121062 7.743358 7.726985 12.130272 18.116613 12.130272 29.073152l0 368.32474L367.730711 684.71055 367.730711 684.709527zM367.730711 684.709527"  /></svg>